# xmcd
#
# Track frame offsets:
#	150
#	18428
#	32527
#	46904
#	62730
#	75854
#	87529
#	104971
#	119153
#	130243
#	145010
#	156963
#
# Disc length: 2267 seconds
#
# Revision: 1
# Processed by: cddbd v1.5.1PL0 Copyright (c) Steve Scherf et al.
# Submitted via: audiograbber 1.83.01
#
DISCID=a108d90c
DTITLE=Zluty Pes - Cinska otazka
DYEAR=2001
DGENRE=Rock
TTITLE0=V nebi (celej zivot delam ostudu)
TTITLE1=Digitalni
TTITLE2=Kazdej uz to vi
TTITLE3=Kuze lina
TTITLE4=Kolowratek (ole, ole, ole)
TTITLE5=Paranoidni blues
TTITLE6=Balada silene kravy
TTITLE7=Tuzemskej rum
TTITLE8=Zatracenej flam
TTITLE9=Svatej DJ
TTITLE10=Back in the U.S.S.R.
TTITLE11=Cinska otazka
EXTD=
EXTT0=
EXTT1=
EXTT2=
EXTT3=
EXTT4=
EXTT5=
EXTT6=
EXTT7=
EXTT8=
EXTT9=
EXTT10=
EXTT11=
PLAYORDER=
